<?xml version="1.0" standalone="no"?>
<!DOCTYPE svg PUBLIC "-//W3C//DTD SVG 1.1//EN" "http://www.w3.org/Graphics/SVG/1.1/DTD/svg11.dtd" >
<svg xmlns="http://www.w3.org/2000/svg">
<metadata></metadata>
<defs>
<font id="sf_distant_galaxyregular" horiz-adv-x="1536" >
<font-face units-per-em="2048" ascent="1638" descent="-410" />
<missing-glyph horiz-adv-x="768" />
<glyph horiz-adv-x="2048" />
<glyph horiz-adv-x="2048" />
<glyph unicode="&#xd;" horiz-adv-x="768" />
<glyph unicode=" "  horiz-adv-x="768" />
<glyph unicode="&#x09;" horiz-adv-x="768" />
<glyph unicode="&#xa0;" horiz-adv-x="768" />
<glyph unicode="!" horiz-adv-x="427" d="M43 171q0 70 50 120t120 50t120 -50q51 -50 51 -120t-51 -121q-50 -50 -120 -50t-120 50q-50 53 -50 121zM43 1365h341l-34 -938h-273z" />
<glyph unicode="&#x22;" horiz-adv-x="853" d="M43 1195q0 68 51 119t119 51q69 0 120 -51t51 -119q0 -60 -25 -129t-76 -132q-63 -77 -121 -81l51 171q-70 0 -120 50q-50 53 -50 121zM469 1195q0 68 51 119q52 51 120 51t119 -51q52 -51 52 -119q0 -60 -26 -129t-75 -132q-63 -77 -121 -81l51 171q-68 0 -121 50 q-50 53 -50 121z" />
<glyph unicode="#" horiz-adv-x="1364" d="M43 427l44 256h213l38 213h-213l44 256h213l40 213h256l-40 -213h214l39 213h256l-39 -213h213l-44 -256h-214l-37 -213h213l-44 -256h-214l-39 -214h-256l39 214h-213l-39 -214h-256l39 214h-213zM556 683h214l37 213h-213z" />
<glyph unicode="$" horiz-adv-x="1451" d="M43 0v427h507q34 0 34 41q0 7 -5 12l-231 169q-135 99 -135 302q0 144 100 259t242 147v179h341v-171h512v-426h-543q-34 0 -34 -40q0 -10 5 -13l248 -186q153 -116 153 -311q0 -137 -104 -247q-98 -104 -237 -133v-178h-341v169h-512z" />
<glyph unicode="%" horiz-adv-x="1727" d="M43 1024q0 137 102 239t239 102t239 -102t102 -239t-102 -239t-239 -102t-239 102t-102 239zM256 1024q0 -49 38 -90q41 -38 90 -38q51 0 89 38q39 39 39 90t-39 89q-38 39 -89 39t-90 -39q-38 -38 -38 -89zM469 99l468 1283l321 -116l-468 -1281zM1002 341 q0 137 102 239q103 103 239 103q137 0 239 -103q102 -102 102 -239q0 -136 -102 -239q-102 -102 -239 -102q-136 0 -239 102q-102 103 -102 239zM1215 341q0 -49 38 -90q41 -38 90 -38q51 0 89 38q39 39 39 90q0 52 -39 90q-38 38 -89 38q-49 0 -90 -38q-38 -38 -38 -90z " />
<glyph unicode="&#x26;" horiz-adv-x="1451" d="M43 425q0 146 85 258q-85 109 -85 251q0 177 124 304t302 127h939v-392h-853q-52 0 -52 -60q0 -51 52 -51h256v-359h-256q-52 0 -52 -56q0 -54 52 -54h420v256h433v-649h-939q-172 0 -300 125q-126 126 -126 300z" />
<glyph unicode="'" horiz-adv-x="427" d="M43 1195q0 68 51 119t119 51q69 0 120 -51t51 -119q0 -60 -25 -129t-76 -132q-63 -77 -121 -81l51 171q-70 0 -120 50q-50 53 -50 121z" />
<glyph unicode="(" horiz-adv-x="597" d="M43 683q0 486 256 853h256q-171 -401 -171 -853q0 -453 171 -852h-256q-256 367 -256 852z" />
<glyph unicode=")" horiz-adv-x="597" d="M43 -169q170 402 170 852t-170 853h256q256 -370 256 -853q0 -485 -256 -852h-256z" />
<glyph unicode="*" horiz-adv-x="778" d="M43 908l141 82l-141 82l102 177l142 -82v164h205v-164l141 82l103 -177l-142 -82l142 -82l-103 -178l-141 82v-163h-205v163l-142 -82z" />
<glyph unicode="+" horiz-adv-x="768" d="M43 555v256h213v213h256v-213h213v-256h-213v-214h-256v214h-213z" />
<glyph unicode="," horiz-adv-x="427" d="M43 171q0 68 51 119t119 51q69 0 120 -51t51 -119q0 -60 -25 -128.5t-76 -131.5q-63 -77 -121 -80l51 169q-70 0 -120 50q-50 53 -50 121z" />
<glyph unicode="-" horiz-adv-x="768" d="M43 555v256h682v-256h-682z" />
<glyph unicode="." horiz-adv-x="427" d="M43 171q0 70 50 120t120 50t120 -50q51 -50 51 -120t-51 -121q-50 -50 -120 -50t-120 50q-50 53 -50 121z" />
<glyph unicode="/" horiz-adv-x="905" d="M0 -60l584 1603l321 -116l-584 -1603z" />
<glyph unicode="0" d="M43 683q0 285 222 488q215 194 503 194t503 -194q222 -203 222 -488q0 -287 -222 -488q-213 -195 -503 -195t-503 195q-222 201 -222 488zM503 683q0 -104 79 -180t186 -76q106 0 185 76q80 77 80 180t-81 180q-79 76 -184 76q-107 0 -186 -76t-79 -180z" />
<glyph unicode="1" horiz-adv-x="734" d="M43 973l170 392h478v-1365h-478v973h-170z" />
<glyph unicode="2" d="M43 0v432q0 168 128 299q129 131 298 131h512q52 0 52 51q0 60 -52 60h-853v392h939q170 0 298 -131t128 -300q0 -170 -129 -300q-128 -131 -297 -131h-512q-38 0 -48 -40q-4 -13 -4 -70h990v-393h-1450z" />
<glyph unicode="3" horiz-adv-x="1451" d="M43 0v393h853q51 0 51 54q0 56 -51 56h-512v359h512q51 0 51 51q0 60 -51 60h-853v392h938q178 0 302 -127q125 -128 125 -304q0 -139 -85 -251q85 -112 85 -258q0 -174 -127 -300q-128 -125 -300 -125h-938z" />
<glyph unicode="4" d="M43 256l170 939h495l-94 -512h316v682h478v-682h85v-427h-85v-256h-478v256h-887z" />
<glyph unicode="5" d="M43 0v393h938q52 0 52 59q0 51 -52 51h-938v862h1365v-392h-905v-111h564q169 0 297 -131q129 -131 129 -299q0 -171 -128 -302q-127 -130 -298 -130h-1024z" />
<glyph unicode="6" d="M43 430v509q0 169 128 297q129 129 298 129h939v-392h-853q-52 0 -52 -51q0 -60 52 -60h512q169 0 297 -131q129 -131 129 -299q0 -171 -128 -302q-127 -130 -298 -130h-598q-169 0 -298 129q-128 131 -128 301zM503 452q0 -59 52 -59h426q52 0 52 59q0 51 -52 51h-426 q-52 0 -52 -51z" />
<glyph unicode="7" d="M43 0l645 973h-645v392h1450l-904 -1365h-546z" />
<glyph unicode="8" d="M43 398q0 187 150 309q-116 114 -116 278q0 158 136 273q128 107 290 107h530q166 0 293 -109q133 -114 133 -276q0 -159 -116 -273q150 -120 150 -311q0 -162 -131 -279t-295 -117h-598q-166 0 -293 114q-133 120 -133 284zM503 444q0 -51 52 -51h426q52 0 52 51 q0 59 -52 59h-426q-52 0 -52 -59zM538 913q0 -51 51 -51h358q51 0 51 51q0 60 -51 60h-358q-51 0 -51 -60z" />
<glyph unicode="9" d="M43 934q0 169 128 300t298 131h598q171 0 298 -130q128 -131 128 -300v-508q0 -169 -129 -298q-128 -129 -297 -129h-939v393h853q52 0 52 51q0 59 -52 59h-512q-169 0 -298 131q-128 131 -128 300zM503 913q0 -51 52 -51h426q52 0 52 51q0 60 -52 60h-426q-52 0 -52 -60 z" />
<glyph unicode=":" horiz-adv-x="427" d="M43 171q0 70 50 120t120 50t120 -50q51 -50 51 -120t-51 -121q-50 -50 -120 -50t-120 50q-50 53 -50 121zM43 853q0 70 50 120q49 51 120 51q70 0 120 -51q51 -50 51 -120q0 -71 -51 -120q-50 -50 -120 -50t-120 50t-50 120z" />
<glyph unicode=";" horiz-adv-x="427" d="M43 171q0 68 51 119t119 51q69 0 120 -51t51 -119q0 -60 -25 -128.5t-76 -131.5q-63 -77 -121 -80l51 169q-70 0 -120 50q-50 53 -50 121zM43 853q0 70 50 120q49 51 120 51q70 0 120 -51q51 -50 51 -120q0 -71 -51 -120q-50 -50 -120 -50t-120 50t-50 120z" />
<glyph unicode="&#x3c;" horiz-adv-x="597" d="M43 683l170 426h342l-171 -426l171 -427h-342z" />
<glyph unicode="=" horiz-adv-x="939" d="M43 384v256h853v-256h-853zM43 725v256h853v-256h-853z" />
<glyph unicode="&#x3e;" horiz-adv-x="597" d="M43 256l170 427l-170 426h341l171 -426l-171 -427h-341z" />
<glyph unicode="?" horiz-adv-x="1280" d="M43 171q0 70 50 120t120 50t120 -50q51 -50 51 -120t-51 -121q-50 -50 -120 -50t-120 50q-50 53 -50 121zM43 393v39q0 168 128 299q129 131 298 131h256q52 0 52 51q0 60 -52 60h-682v392h768q170 0 298 -131t128 -300q0 -170 -129 -300q-128 -131 -297 -131h-359 q-71 0 -68 -110h-341z" />
<glyph unicode="@" horiz-adv-x="1246" d="M43 683q0 237 171 408q172 172 409 172q234 0 407 -173t173 -407q0 -238 -172 -410q-171 -171 -408 -171t-409 171q-171 172 -171 410zM213 683q0 -166 122 -288t288 -122q165 0 287 122q123 121 123 288q0 165 -123 287q-122 122 -287 122q-166 0 -288 -122t-122 -287z M328 427l135 512h320l133 -512h-204l-16 63h-146l-18 -63h-204zM580 606h86l-43 162z" />
<glyph unicode="A" horiz-adv-x="1621" d="M43 0l358 1365h819l359 -1365h-529l-45 171h-389l-44 -171h-529zM707 512h208l-104 398z" />
<glyph unicode="B" d="M43 0v1365h887q181 0 324 -107q154 -118 154 -294q0 -136 -84 -242q169 -114 169 -324q0 -176 -155 -292q-142 -106 -323 -106h-972zM521 341h358q41 0 71 31q31 31 31 72t-31 71q-30 31 -71 31h-358v-205zM521 819h341q41 0 71 31q31 31 31 72t-31 71q-30 31 -71 31 h-341v-205z" />
<glyph unicode="C" horiz-adv-x="1365" d="M43 683q0 285 222 488q215 194 503 194h555v-426h-555q-106 0 -185 -76q-80 -77 -80 -180q0 -104 79 -180t186 -76h555v-427h-555q-290 0 -503 195q-222 201 -222 488z" />
<glyph unicode="D" d="M43 0v1365h725q288 0 503 -194q222 -203 222 -488q0 -287 -222 -488q-213 -195 -503 -195h-725zM521 427h247q106 0 185 76q80 77 80 180t-81 180q-79 76 -184 76h-247v-512z" />
<glyph unicode="E" horiz-adv-x="1451" d="M43 0v1365h1365v-426h-853v-77h512v-359h-512v-76h853v-427h-1365z" />
<glyph unicode="F" horiz-adv-x="1451" d="M43 0v1365h1365v-426h-853v-77h512v-359h-512v-503h-512z" />
<glyph unicode="G" d="M43 683q0 285 222 488q215 194 503 194q282 0 497 -186l-313 -312q-83 72 -184 72q-106 0 -185 -76q-80 -77 -80 -180q0 -104 79 -180t186 -76h213v256h512v-683h-725q-290 0 -503 195q-222 201 -222 488z" />
<glyph unicode="H" d="M43 0v1365h512v-503h426v503h512v-1365h-512v503h-426v-503h-512z" />
<glyph unicode="I" horiz-adv-x="597" d="M43 0v1365h512v-1365h-512z" />
<glyph unicode="J" horiz-adv-x="896" d="M43 85q171 0 223 16q127 34 127 155v1109h460v-1280q0 -277 -244 -368q-146 -57 -481 -57z" />
<glyph unicode="K" d="M43 0v1365h512v-447l314 447h624l-498 -713l205 -205q20 -20 83 -20h210v-427h-358q-172 0 -341 171l-239 239v-410h-512z" />
<glyph unicode="L" horiz-adv-x="1365" d="M43 0v1365h512v-938h768v-427h-1280z" />
<glyph unicode="M" horiz-adv-x="1707" d="M43 0v1365h512l298 -426l299 426h512v-1365h-512v427l-299 -427l-298 427v-427h-512z" />
<glyph unicode="N" d="M43 0v1365h6q287 0 523 -99q266 -112 409 -327v426h512v-1365h-512q-8 221 -107 386q-118 201 -319 211v-597h-512z" />
<glyph unicode="O" d="M43 683q0 285 222 488q215 194 503 194t503 -194q222 -203 222 -488q0 -287 -222 -488q-213 -195 -503 -195t-503 195q-222 201 -222 488zM503 683q0 -104 79 -180t186 -76q106 0 185 76q80 77 80 180t-81 180q-79 76 -184 76q-107 0 -186 -76t-79 -180z" />
<glyph unicode="P" d="M43 0v734h836q41 0 71 30q31 31 31 72t-31 72q-30 31 -71 31h-836v426h972q188 0 333 -145t145 -333q0 -187 -145 -332t-333 -145h-460v-410h-512z" />
<glyph unicode="Q" horiz-adv-x="1621" d="M43 683q0 285 222 488q215 194 503 194t503 -194q222 -203 222 -488q0 -132 -51 -256h137v-427h-811q-290 0 -503 195q-222 201 -222 488zM503 683q0 -104 79 -180t186 -76q106 0 185 76q80 77 80 180t-81 180q-79 76 -184 76q-106 0 -185 -76q-80 -77 -80 -180z" />
<glyph unicode="R" horiz-adv-x="1621" d="M43 0v734h836q41 0 71 30q31 31 31 72t-31 72q-30 31 -71 31h-836v426h972q188 0 334 -137q144 -137 144 -323q0 -139 -82 -257q-81 -117 -211 -167q31 -54 89 -54h290v-427h-444q-172 0 -341 171l-239 239v-410h-512z" />
<glyph unicode="S" horiz-adv-x="1451" d="M43 0v427h507q34 0 34 41q0 7 -5 12l-231 169q-135 99 -135 302q0 167 130 290q130 124 297 124h768v-426h-543q-34 0 -34 -40q0 -10 5 -13l248 -186q153 -116 153 -311q0 -162 -132 -276q-134 -113 -296 -113h-766z" />
<glyph unicode="T" d="M43 939v426h1450v-426h-469v-939h-512v939h-469z" />
<glyph unicode="U" d="M43 683v682h460v-682q0 -104 79 -180t186 -76q105 0 184 76q81 76 81 180v682h460v-682q0 -287 -222 -488q-213 -195 -503 -195t-503 195q-222 201 -222 488z" />
<glyph unicode="V" horiz-adv-x="1621" d="M43 1365h529l239 -909l239 909h529l-359 -1365h-819z" />
<glyph unicode="W" horiz-adv-x="2202" d="M43 1365h529l119 -455l120 455h580l119 -455l120 455h529l-358 -1365h-581l-119 456l-120 -456h-580z" />
<glyph unicode="X" horiz-adv-x="1792" d="M43 0l537 683l-537 682h631l222 -281l222 281h631l-537 -682l537 -683h-631l-222 282l-222 -282h-631z" />
<glyph unicode="Y" horiz-adv-x="1690" d="M43 1365h580l222 -401l222 401h580l-546 -938v-427h-512v427z" />
<glyph unicode="Z" d="M43 0l621 939h-621v426h1450l-621 -938h621v-427h-1450z" />
<glyph unicode="[" horiz-adv-x="597" d="M43 -169v1705h512v-341h-171v-1024h171v-340h-512z" />
<glyph unicode="\" horiz-adv-x="905" d="M0 1427l321 116l584 -1603l-321 -116z" />
<glyph unicode="]" horiz-adv-x="597" d="M43 -169v340h170v1024h-170v341h512v-1705h-512z" />
<glyph unicode="^" horiz-adv-x="973" d="M43 768l341 597h205l341 -597h-205l-239 418l-239 -418h-204z" />
<glyph unicode="_" horiz-adv-x="683" d="M0 0v256h683v-256h-683z" />
<glyph unicode="`" horiz-adv-x="853" d="M43 1536l170 171l598 -222v-34z" />
<glyph unicode="a" horiz-adv-x="1621" d="M43 0l358 1365h819l359 -1365h-529l-45 171h-389l-44 -171h-529zM707 512h208l-104 398z" />
<glyph unicode="b" d="M43 0v1365h887q181 0 324 -107q154 -118 154 -294q0 -136 -84 -242q169 -114 169 -324q0 -176 -155 -292q-142 -106 -323 -106h-972zM521 341h358q41 0 71 31q31 31 31 72t-31 71q-30 31 -71 31h-358v-205zM521 819h341q41 0 71 31q31 31 31 72t-31 71q-30 31 -71 31 h-341v-205z" />
<glyph unicode="c" horiz-adv-x="1365" d="M43 683q0 285 222 488q215 194 503 194h555v-426h-555q-106 0 -185 -76q-80 -77 -80 -180q0 -104 79 -180t186 -76h555v-427h-555q-290 0 -503 195q-222 201 -222 488z" />
<glyph unicode="d" d="M43 0v1365h725q288 0 503 -194q222 -203 222 -488q0 -287 -222 -488q-213 -195 -503 -195h-725zM521 427h247q106 0 185 76q80 77 80 180t-81 180q-79 76 -184 76h-247v-512z" />
<glyph unicode="e" horiz-adv-x="1451" d="M43 0v1365h1365v-426h-853v-77h512v-359h-512v-76h853v-427h-1365z" />
<glyph unicode="f" horiz-adv-x="1451" d="M43 0v1365h1365v-426h-853v-77h512v-359h-512v-503h-512z" />
<glyph unicode="g" d="M43 683q0 285 222 488q215 194 503 194h725v-426h-725q-106 0 -185 -76q-80 -77 -80 -180q0 -104 79 -180t186 -76h213v256h512v-683h-725q-290 0 -503 195q-222 201 -222 488z" />
<glyph unicode="h" d="M43 0v1365h512v-503h426v503h512v-1365h-512v503h-426v-503h-512z" />
<glyph unicode="i" horiz-adv-x="597" d="M43 0v1365h512v-1365h-512z" />
<glyph unicode="j" horiz-adv-x="896" d="M43 85q173 0 225 16q125 35 125 155v1109h460v-1280q0 -276 -244 -370q-143 -55 -481 -55z" />
<glyph unicode="k" d="M43 0v1365h512v-447l314 447h624l-498 -713l205 -205q20 -20 83 -20h210v-427h-358q-172 0 -341 171l-239 239v-410h-512z" />
<glyph unicode="l" horiz-adv-x="1365" d="M43 0v1365h512v-938h768v-427h-1280z" />
<glyph unicode="m" horiz-adv-x="1707" d="M43 0v1365h512l298 -426l299 426h512v-1365h-512v427l-299 -427l-298 427v-427h-512z" />
<glyph unicode="n" d="M43 0v1365h512l426 -546v546h512v-1365h-512l-426 546v-546h-512z" />
<glyph unicode="o" d="M43 683q0 285 222 488q215 194 503 194t503 -194q222 -203 222 -488q0 -287 -222 -488q-213 -195 -503 -195t-503 195q-222 201 -222 488zM503 683q0 -104 79 -180t186 -76q106 0 185 76q80 77 80 180t-81 180q-79 76 -184 76q-107 0 -186 -76t-79 -180z" />
<glyph unicode="p" d="M43 0v1365h972q188 0 333 -145t145 -333q0 -187 -145 -332t-333 -145h-460v-410h-512zM555 785h324q41 0 71 31q31 31 31 71q0 41 -31 72q-30 31 -71 31h-324v-205z" />
<glyph unicode="q" horiz-adv-x="1621" d="M43 683q0 285 222 488q215 194 503 194t503 -194q222 -203 222 -488q0 -132 -51 -256h137v-427h-811q-290 0 -503 195q-222 201 -222 488zM503 683q0 -104 79 -180t186 -76q106 0 185 76q80 77 80 180t-81 180q-79 76 -184 76q-106 0 -185 -76q-80 -77 -80 -180z" />
<glyph unicode="r" horiz-adv-x="1621" d="M43 0v1365h972q188 0 334 -137q144 -137 144 -323q0 -139 -82 -257q-81 -117 -211 -167q31 -54 89 -54h290v-427h-444q-172 0 -341 171l-239 239v-410h-512zM555 785h324q41 0 71 31q31 31 31 71q0 41 -31 72q-30 31 -71 31h-324v-205z" />
<glyph unicode="s" horiz-adv-x="1451" d="M43 0v427h507q34 0 34 41q0 7 -5 12l-231 169q-135 99 -135 302q0 167 130 290q130 124 297 124h768v-426h-543q-34 0 -34 -40q0 -10 5 -13l248 -186q153 -116 153 -311q0 -162 -132 -276q-134 -113 -296 -113h-766z" />
<glyph unicode="t" d="M43 939v426h1450v-426h-469v-939h-512v939h-469z" />
<glyph unicode="u" d="M43 683v682h460v-682q0 -104 79 -180t186 -76q105 0 184 76q81 76 81 180v682h460v-682q0 -287 -222 -488q-213 -195 -503 -195t-503 195q-222 201 -222 488z" />
<glyph unicode="v" horiz-adv-x="1621" d="M43 1365h529l239 -909l239 909h529l-359 -1365h-819z" />
<glyph unicode="w" horiz-adv-x="2202" d="M43 1365h529l119 -455l120 455h580l119 -455l120 455h529l-358 -1365h-581l-119 456l-120 -456h-580z" />
<glyph unicode="x" horiz-adv-x="1792" d="M43 0l537 683l-537 682h631l222 -281l222 281h631l-537 -682l537 -683h-631l-222 282l-222 -282h-631z" />
<glyph unicode="y" horiz-adv-x="1690" d="M43 1365h580l222 -401l222 401h580l-546 -938v-427h-512v427z" />
<glyph unicode="z" d="M43 0l621 939h-621v426h1450l-621 -938h621v-427h-1450z" />
<glyph unicode="{" horiz-adv-x="768" d="M43 597v154q71 3 120 52q50 50 50 119v273q0 136 102 238q103 103 240 103h170v-341h-170v-342q0 -69 -51 -118q-49 -49 -120 -52q70 -5 120 -54q51 -50 51 -117v-341h170v-340h-170q-137 0 -240 102q-102 100 -102 238v256q0 67 -50 117t-120 53z" />
<glyph unicode="|" horiz-adv-x="473" d="M43 -169v1705h341v-1705h-341z" />
<glyph unicode="}" horiz-adv-x="768" d="M43 -169v340h170v341q0 67 50 117q51 50 121 54q-72 3 -121 52q-50 50 -50 118v342h-170v341h170q137 0 239 -103q103 -102 103 -238v-273q0 -69 50 -119q49 -49 120 -52v-154q-70 -3 -120 -53t-50 -117v-256q0 -138 -103 -238q-102 -102 -239 -102h-170z" />
<glyph unicode="~" horiz-adv-x="768" d="M43 1451v174q76 66 172 66q58 0 170 -41t170 -41q79 0 170 82v-170q-94 -70 -175 -70q-56 0 -168 41t-167 41q-81 0 -172 -82z" />
<glyph unicode="&#xa1;" horiz-adv-x="427" d="M43 0l34 939h273l34 -939h-341zM43 1195q0 70 50 120t120 50t120 -50q51 -50 51 -120t-51 -121q-50 -50 -120 -50t-120 50q-50 53 -50 121z" />
<glyph unicode="&#xa2;" horiz-adv-x="1365" d="M43 683q0 232 155 420q150 177 382 238v195h342v-171h401v-426h-555q-106 0 -185 -76q-80 -77 -80 -180q0 -104 79 -180t186 -76h555v-427h-401v-169h-342v193q-230 60 -382 239q-155 188 -155 420z" />
<glyph unicode="&#xa5;" horiz-adv-x="1690" d="M43 1365h580l222 -401l222 401h580l-299 -512h214v-256h-362l-50 -85h412v-256h-461v-256h-512v256h-461v256h411l-49 85h-362v256h213z" />
<glyph unicode="&#xa8;" horiz-adv-x="768" d="M43 1579q0 53 37 90q38 38 91 38q51 0 89 -39q39 -38 39 -89q0 -53 -38 -91q-37 -37 -90 -37q-52 0 -90 38t-38 90zM469 1579q0 53 37 90q38 38 91 38q52 0 90 -39q38 -38 38 -89q0 -53 -38 -91q-37 -37 -90 -37q-49 0 -90 38q-38 38 -38 90z" />
<glyph unicode="&#xa9;" horiz-adv-x="1246" d="M43 683q0 237 171 408q172 172 409 172q234 0 407 -173t173 -407q0 -238 -172 -410q-171 -171 -408 -171t-409 171q-171 172 -171 410zM213 683q0 -166 122 -288t288 -122q165 0 287 122q123 121 123 288q0 165 -123 287q-122 122 -287 122q-166 0 -288 -122t-122 -287z M314 683q0 107 92 184q85 72 196 72h193v-161h-193q-42 0 -78 -27t-36 -68t36 -69q36 -27 78 -27h193v-160h-193q-107 0 -196 71q-92 77 -92 185z" />
<glyph unicode="&#xad;" horiz-adv-x="768" d="M43 555v256h682v-256h-682z" />
<glyph unicode="&#xae;" horiz-adv-x="1246" d="M43 683q0 237 171 408q172 172 409 172q234 0 407 -173t173 -407q0 -238 -172 -410q-171 -171 -408 -171t-409 171q-171 172 -171 410zM213 683q0 -166 122 -288t288 -122q165 0 287 122q123 121 123 288q0 165 -123 287q-122 122 -287 122q-166 0 -288 -122t-122 -287z M335 427v512h365q72 0 124 -52q55 -51 55 -121q0 -115 -111 -158q12 -21 34 -21h109v-160h-167q-58 0 -123 53q-8 7 -31 32t-63 68v-153h-192zM527 720h122q37 0 37 39q0 40 -37 40h-122v-79z" />
<glyph unicode="&#xb0;" horiz-adv-x="469" d="M43 1172q0 77 56 136q55 57 135 57q78 0 135 -57q58 -57 58 -136q0 -78 -58 -135q-59 -56 -135 -56q-79 0 -135 56q-56 59 -56 135zM143 1172q0 -18 7.5 -34.5t20 -29t29 -19.5t34.5 -7q36 0 63 27q27 28 27 63q0 18 -7.5 34.5t-19.5 29t-28.5 20t-34.5 7.5t-34.5 -7.5 t-29 -20t-20 -29t-7.5 -34.5z" />
<glyph unicode="&#xb1;" horiz-adv-x="768" d="M43 0v256h682v-256h-682zM43 555v256h213v213h256v-213h213v-256h-213v-214h-256v214h-213z" />
<glyph unicode="&#xb4;" horiz-adv-x="853" d="M43 1451v34l597 222l171 -171z" />
<glyph unicode="&#xb6;" d="M43 887q0 188 145 333t333 145h972v-375h-119v-990h-341v990h-171v-990h-341v410q-190 1 -334 144q-144 144 -144 333z" />
<glyph unicode="&#xbc;" horiz-adv-x="1534" d="M43 1169l85 196h239v-682h-239v486h-85zM241 99l467 1283l321 -116l-468 -1281zM766 111l86 469h247l-46 -256h157v342h239v-342h43v-213h-43v-126h-239v126h-444z" />
<glyph unicode="&#xbd;" horiz-adv-x="1620" d="M43 1169l85 196h239v-682h-239v486h-85zM241 99l467 1283l321 -116l-468 -1281zM852 0v215q0 86 64 150q65 65 149 65h256q26 0 26 26q0 30 -26 30h-427v197h470q84 0 149 -66q64 -64 64 -151q0 -86 -64 -150q-65 -65 -149 -65h-256q-27 0 -26 -55h495v-196h-725z" />
<glyph unicode="&#xbe;" horiz-adv-x="1841" d="M43 683v196h426q26 0 26 27q0 29 -26 29h-256v179h256q26 0 26 26q0 29 -26 29h-426v196h469q89 0 151 -63q62 -65 62 -152q0 -71 -42 -126q42 -56 42 -128q0 -87 -63 -150t-150 -63h-469zM531 99l467 1283l321 -116l-467 -1281zM1073 128l86 469h247l-46 -256h157v342 h239v-342h43v-213h-43v-128h-239v128h-444z" />
<glyph unicode="&#xbf;" horiz-adv-x="1280" d="M43 432q0 168 128 299q129 131 298 131h359q71 0 68 111h341v-39q0 -170 -129 -300q-128 -131 -297 -131h-256q-52 0 -52 -51q0 -59 52 -59h682v-393h-768q-171 0 -298 130q-128 131 -128 302zM896 1195q0 70 50 120q53 50 121 50q70 0 120 -50t50 -120q0 -68 -50 -121 q-50 -50 -120 -50q-68 0 -121 50q-50 53 -50 121z" />
<glyph unicode="&#xc0;" horiz-adv-x="1621" d="M43 0l358 1365h819l359 -1365h-529l-45 171h-389l-44 -171h-529zM256 1536l171 171l597 -222v-34zM707 512h208l-104 398z" />
<glyph unicode="&#xc1;" horiz-adv-x="1621" d="M43 0l358 1365h819l359 -1365h-529l-45 171h-389l-44 -171h-529zM597 1451v34l598 222l170 -171zM707 512h208l-104 398z" />
<glyph unicode="&#xc2;" horiz-adv-x="1621" d="M43 0l358 1365h819l359 -1365h-529l-45 171h-389l-44 -171h-529zM314 1451l341 256h311l341 -256h-276l-220 165l-220 -165h-277zM707 512h208l-104 398z" />
<glyph unicode="&#xc3;" horiz-adv-x="1621" d="M43 0l358 1365h819l359 -1365h-529l-45 171h-389l-44 -171h-529zM469 1451v174q76 66 173 66q57 0 169 -41q114 -41 170 -41q80 0 171 82v-170q-94 -70 -176 -70q-55 0 -167 41t-167 41q-82 0 -173 -82zM707 512h208l-104 398z" />
<glyph unicode="&#xc4;" horiz-adv-x="1621" d="M43 0l358 1365h819l359 -1365h-529l-45 171h-389l-44 -171h-529zM469 1579q0 51 38 89q39 39 90 39q52 0 90 -38t38 -90q0 -53 -38 -91q-37 -37 -90 -37q-49 0 -90 38q-38 38 -38 90zM707 512h208l-104 398zM896 1579q0 51 38 89q39 39 90 39q52 0 90 -38t38 -90 q0 -53 -38 -91q-37 -37 -90 -37q-49 0 -90 38q-38 38 -38 90z" />
<glyph unicode="&#xc5;" horiz-adv-x="1621" d="M43 0l358 1365h819l359 -1365h-529l-45 171h-389l-44 -171h-529zM683 1579q0 51 38 89q37 39 90 39q51 0 89 -39q39 -38 39 -89q0 -53 -39 -90q-38 -38 -89 -38q-52 0 -90 38t-38 90zM707 512h208l-104 398zM751 1579q0 -60 60 -60q24 0 41.5 18t17.5 42t-17.5 41.5 t-41.5 17.5q-60 0 -60 -59z" />
<glyph unicode="&#xc6;" horiz-adv-x="2458" d="M43 0l710 1365h1662v-426h-853v-77h512v-359h-512v-76h853v-427h-1365v171h-390l-88 -171h-529zM821 478h229v432z" />
<glyph unicode="&#xc8;" horiz-adv-x="1451" d="M43 0v1365h1365v-426h-853v-77h512v-359h-512v-76h853v-427h-1365zM171 1536l170 171l598 -222v-34z" />
<glyph unicode="&#xc9;" horiz-adv-x="1451" d="M43 0v1365h1365v-426h-853v-77h512v-359h-512v-76h853v-427h-1365zM512 1451v34l597 222l171 -171z" />
<glyph unicode="&#xca;" horiz-adv-x="1451" d="M43 0v1365h1365v-426h-853v-77h512v-359h-512v-76h853v-427h-1365zM229 1451l341 256h311l341 -256h-277l-220 165l-220 -165h-276z" />
<glyph unicode="&#xcb;" horiz-adv-x="1451" d="M43 0v1365h1365v-426h-853v-77h512v-359h-512v-76h853v-427h-1365zM384 1579q0 51 38 89q39 39 90 39q52 0 90 -38t38 -90q0 -53 -39 -90q-38 -38 -89 -38q-49 0 -90 38q-38 38 -38 90zM811 1579q0 51 38 89q37 39 90 39q52 0 90 -38t38 -90q0 -53 -39 -90 q-38 -38 -89 -38q-52 0 -90 38t-38 90z" />
<glyph unicode="&#xcc;" horiz-adv-x="597" d="M-254 1536l170 171l596 -222v-34zM43 0v1365h512v-1365h-512z" />
<glyph unicode="&#xcd;" horiz-adv-x="597" d="M43 0v1365h512v-1365h-512zM85 1451v34l598 222l170 -171z" />
<glyph unicode="&#xce;" horiz-adv-x="597" d="M-196 1451l339 256h311l341 -256h-276l-220 165l-220 -165h-275zM43 0v1365h512v-1365h-512z" />
<glyph unicode="&#xcf;" horiz-adv-x="597" d="M-41 1579q0 51 38 89q37 39 88 39q52 0 90 -38t38 -90t-38 -90t-90 -38q-50 0 -88 38t-38 90zM43 0v1365h512v-1365h-512zM384 1579q0 51 38 89q39 39 90 39q52 0 90 -38t38 -90q0 -53 -39 -90q-38 -38 -89 -38q-49 0 -90 38q-38 38 -38 90z" />
<glyph unicode="&#xd1;" d="M43 0v1365h6q287 0 523 -99q266 -112 409 -327v426h512v-1365h-512q-8 221 -107 386q-118 201 -319 211v-597h-512zM427 1451v174q76 66 172 66q58 0 170 -41t170 -41q79 0 170 82v-170q-94 -70 -175 -70q-56 0 -168 41t-167 41q-81 0 -172 -82z" />
<glyph unicode="&#xd2;" d="M43 683q0 285 222 488q215 194 503 194t503 -194q222 -203 222 -488q0 -287 -222 -488q-213 -195 -503 -195t-503 195q-222 201 -222 488zM213 1536l171 171l597 -222v-34zM503 683q0 -104 79 -180t186 -76q106 0 185 76q80 77 80 180t-81 180q-79 76 -184 76 q-107 0 -186 -76t-79 -180z" />
<glyph unicode="&#xd3;" d="M43 683q0 285 222 488q215 194 503 194t503 -194q222 -203 222 -488q0 -287 -222 -488q-213 -195 -503 -195t-503 195q-222 201 -222 488zM503 683q0 -104 79 -180t186 -76q106 0 185 76q80 77 80 180t-81 180q-79 76 -184 76q-107 0 -186 -76t-79 -180zM555 1451v34 l597 222l171 -171z" />
<glyph unicode="&#xd4;" d="M43 683q0 285 222 488q215 194 503 194t503 -194q222 -203 222 -488q0 -287 -222 -488q-213 -195 -503 -195t-503 195q-222 201 -222 488zM271 1451l342 256h310l342 -256h-277l-220 165l-220 -165h-277zM503 683q0 -104 79 -180t186 -76q106 0 185 76q80 77 80 180 t-81 180q-79 76 -184 76q-106 0 -185 -76q-80 -77 -80 -180z" />
<glyph unicode="&#xd5;" d="M43 683q0 285 222 488q215 194 503 194t503 -194q222 -203 222 -488q0 -287 -222 -488q-213 -195 -503 -195t-503 195q-222 201 -222 488zM427 1451v174q76 66 172 66q58 0 170 -41t170 -41q79 0 170 82v-170q-94 -70 -175 -70q-56 0 -168 41t-167 41q-81 0 -172 -82z M503 683q0 -104 79 -180t186 -76q106 0 185 76q80 77 80 180t-81 180q-79 76 -184 76q-107 0 -186 -76t-79 -180z" />
<glyph unicode="&#xd6;" d="M43 683q0 285 222 488q215 194 503 194t503 -194q222 -203 222 -488q0 -287 -222 -488q-213 -195 -503 -195t-503 195q-222 201 -222 488zM427 1579q0 51 38 89q37 39 90 39q52 0 90 -38t38 -90q0 -53 -38 -91q-37 -37 -90 -37q-52 0 -90 38t-38 90zM503 683 q0 -104 79 -180t186 -76q106 0 185 76q80 77 80 180t-81 180q-79 76 -184 76q-107 0 -186 -76t-79 -180zM853 1579q0 51 38 89q39 39 90 39q52 0 90 -38t38 -90q0 -53 -38 -91q-37 -37 -90 -37q-49 0 -90 38q-38 38 -38 90z" />
<glyph unicode="&#xd7;" horiz-adv-x="748" d="M43 532l150 151l-150 150l181 181l150 -150l150 150l181 -181l-150 -150l150 -151l-181 -180l-150 150l-150 -150z" />
<glyph unicode="&#xd8;" d="M-44 49l228 231q-141 178 -141 403q0 285 222 488q215 194 503 194q208 0 391 -111l242 243l181 -181l-230 -231q141 -179 141 -402q0 -287 -222 -488q-213 -195 -503 -195q-208 0 -391 111l-242 -241zM503 683q0 -35 12 -72l320 319q-33 9 -67 9q-106 0 -185 -76 q-80 -77 -80 -180zM701 435q37 -8 67 -8q106 0 185 76q80 77 80 180q0 36 -12 71z" />
<glyph unicode="&#xd9;" d="M43 683v682h460v-682q0 -104 79 -180t186 -76q105 0 184 76q81 76 81 180v682h460v-682q0 -287 -222 -488q-213 -195 -503 -195t-503 195q-222 201 -222 488zM213 1536l171 171l597 -222v-34z" />
<glyph unicode="&#xda;" d="M43 683v682h460v-682q0 -104 79 -180t186 -76q105 0 184 76q81 76 81 180v682h460v-682q0 -287 -222 -488q-213 -195 -503 -195t-503 195q-222 201 -222 488zM555 1451v34l597 222l171 -171z" />
<glyph unicode="&#xdb;" d="M43 683v682h460v-682q0 -104 79 -180t186 -76q105 0 184 76q81 76 81 180v682h460v-682q0 -287 -222 -488q-213 -195 -503 -195t-503 195q-222 201 -222 488zM271 1451l342 256h310l342 -256h-277l-220 165l-220 -165h-277z" />
<glyph unicode="&#xdc;" d="M43 683v682h460v-682q0 -104 79 -180t186 -76q105 0 184 76q81 76 81 180v682h460v-682q0 -287 -222 -488q-213 -195 -503 -195t-503 195q-222 201 -222 488zM427 1579q0 51 38 89q37 39 90 39q51 0 89 -39q39 -38 39 -89q0 -53 -38 -91q-37 -37 -90 -37q-52 0 -90 38 t-38 90zM853 1579q0 51 38 89q39 39 90 39q52 0 90 -39q38 -38 38 -89q0 -53 -38 -91q-37 -37 -90 -37q-49 0 -90 38q-38 38 -38 90z" />
<glyph unicode="&#xdd;" horiz-adv-x="1690" d="M43 1365h580l222 -401l222 401h580l-546 -938v-427h-512v427zM631 1451v34l598 222l170 -171z" />
<glyph unicode="&#xe0;" horiz-adv-x="1621" d="M43 0l358 1365h819l359 -1365h-529l-45 171h-389l-44 -171h-529zM256 1536l171 171l597 -222v-34zM707 512h208l-104 398z" />
<glyph unicode="&#xe1;" horiz-adv-x="1621" d="M43 0l358 1365h819l359 -1365h-529l-45 171h-389l-44 -171h-529zM597 1451v34l598 222l170 -171zM707 512h208l-104 398z" />
<glyph unicode="&#xe2;" horiz-adv-x="1621" d="M43 0l358 1365h819l359 -1365h-529l-45 171h-389l-44 -171h-529zM314 1451l341 256h311l341 -256h-276l-220 165l-220 -165h-277zM707 512h208l-104 398z" />
<glyph unicode="&#xe3;" horiz-adv-x="1621" d="M43 0l358 1365h819l359 -1365h-529l-45 171h-389l-44 -171h-529zM469 1451v174q76 66 173 66q57 0 169 -41q114 -41 170 -41q80 0 171 82v-170q-94 -70 -176 -70q-55 0 -167 41t-167 41q-82 0 -173 -82zM707 512h208l-104 398z" />
<glyph unicode="&#xe4;" horiz-adv-x="1621" d="M43 0l358 1365h819l359 -1365h-529l-45 171h-389l-44 -171h-529zM469 1579q0 53 37 90q38 38 91 38q52 0 90 -38t38 -90t-38 -90t-90 -38q-49 0 -90 38q-38 38 -38 90zM707 512h208l-104 398zM896 1579q0 53 37 90q38 38 91 38q52 0 90 -38t38 -90q0 -53 -39 -90 q-38 -38 -89 -38q-49 0 -90 38q-38 38 -38 90z" />
<glyph unicode="&#xe5;" horiz-adv-x="1621" d="M43 0l358 1365h819l359 -1365h-529l-45 171h-389l-44 -171h-529zM683 1579q0 51 38 89q37 39 90 39q51 0 89 -39q39 -38 39 -89q0 -53 -39 -90q-38 -38 -89 -38q-52 0 -90 38t-38 90zM707 512h208l-104 398zM751 1579q0 -60 60 -60q24 0 41.5 18t17.5 42t-17.5 41.5 t-41.5 17.5q-60 0 -60 -59z" />
<glyph unicode="&#xe6;" horiz-adv-x="2458" d="M43 0l710 1365h1662v-426h-853v-77h512v-359h-512v-76h853v-427h-1365v171h-390l-88 -171h-529zM821 478h229v432z" />
<glyph unicode="&#xe8;" horiz-adv-x="1451" d="M43 0v1365h1365v-426h-853v-77h512v-359h-512v-76h853v-427h-1365zM171 1536l170 171l598 -222v-34z" />
<glyph unicode="&#xe9;" horiz-adv-x="1451" d="M43 0v1365h1365v-426h-853v-77h512v-359h-512v-76h853v-427h-1365zM512 1451v34l597 222l171 -171z" />
<glyph unicode="&#xea;" horiz-adv-x="1451" d="M43 0v1365h1365v-426h-853v-77h512v-359h-512v-76h853v-427h-1365zM229 1451l341 256h311l341 -256h-277l-220 165l-220 -165h-276z" />
<glyph unicode="&#xeb;" horiz-adv-x="1451" d="M43 0v1365h1365v-426h-853v-77h512v-359h-512v-76h853v-427h-1365zM384 1579q0 51 38 89q39 39 90 39t89 -39q39 -38 39 -89q0 -53 -39 -90q-38 -38 -89 -38q-49 0 -90 38q-38 38 -38 90zM811 1579q0 51 38 89q37 39 90 39q51 0 89 -39q39 -38 39 -89q0 -53 -39 -90 q-38 -38 -89 -38q-52 0 -90 38t-38 90z" />
<glyph unicode="&#xec;" horiz-adv-x="597" d="M-254 1536l170 171l596 -222v-34zM43 0v1365h512v-1365h-512z" />
<glyph unicode="&#xed;" horiz-adv-x="597" d="M43 0v1365h512v-1365h-512zM85 1451v34l598 222l170 -171z" />
<glyph unicode="&#xee;" horiz-adv-x="597" d="M-196 1451l339 256h311l341 -256h-276l-220 165l-220 -165h-275zM43 0v1365h512v-1365h-512z" />
<glyph unicode="&#xef;" horiz-adv-x="597" d="M-41 1579q0 53 37 90q36 38 89 38q52 0 90 -39q38 -38 38 -89q0 -52 -38 -90t-90 -38q-50 0 -88 38t-38 90zM43 0v1365h512v-1365h-512zM384 1579q0 53 37 90q38 38 91 38q51 0 89 -39q39 -38 39 -89q0 -53 -39 -90q-38 -38 -89 -38q-49 0 -90 38q-38 38 -38 90z" />
<glyph unicode="&#xf1;" d="M43 0v1365h512l426 -546v546h512v-1365h-512l-426 546v-546h-512zM427 1451v174q76 66 172 66q58 0 170 -41t170 -41q79 0 170 82v-170q-94 -70 -175 -70q-56 0 -168 41t-167 41q-81 0 -172 -82z" />
<glyph unicode="&#xf2;" d="M43 683q0 285 222 488q215 194 503 194t503 -194q222 -203 222 -488q0 -287 -222 -488q-213 -195 -503 -195t-503 195q-222 201 -222 488zM213 1536l171 171l597 -222v-34zM503 683q0 -104 79 -180t186 -76q106 0 185 76q80 77 80 180t-81 180q-79 76 -184 76 q-107 0 -186 -76t-79 -180z" />
<glyph unicode="&#xf3;" d="M43 683q0 285 222 488q215 194 503 194t503 -194q222 -203 222 -488q0 -287 -222 -488q-213 -195 -503 -195t-503 195q-222 201 -222 488zM503 683q0 -104 79 -180t186 -76q106 0 185 76q80 77 80 180t-81 180q-79 76 -184 76q-107 0 -186 -76t-79 -180zM555 1451v34 l597 222l171 -171z" />
<glyph unicode="&#xf4;" d="M43 683q0 285 222 488q215 194 503 194t503 -194q222 -203 222 -488q0 -287 -222 -488q-213 -195 -503 -195t-503 195q-222 201 -222 488zM271 1451l342 256h310l342 -256h-277l-220 165l-220 -165h-277zM503 683q0 -104 79 -180t186 -76q106 0 185 76q80 77 80 180 t-81 180q-79 76 -184 76q-106 0 -185 -76q-80 -77 -80 -180z" />
<glyph unicode="&#xf5;" d="M43 683q0 285 222 488q215 194 503 194t503 -194q222 -203 222 -488q0 -287 -222 -488q-213 -195 -503 -195t-503 195q-222 201 -222 488zM427 1451v174q76 66 172 66q58 0 170 -41t170 -41q79 0 170 82v-170q-94 -70 -175 -70q-56 0 -168 41t-167 41q-81 0 -172 -82z M503 683q0 -104 79 -180t186 -76q106 0 185 76q80 77 80 180t-81 180q-79 76 -184 76q-107 0 -186 -76t-79 -180z" />
<glyph unicode="&#xf6;" d="M43 683q0 285 222 488q215 194 503 194t503 -194q222 -203 222 -488q0 -287 -222 -488q-213 -195 -503 -195t-503 195q-222 201 -222 488zM427 1579q0 51 38 89q37 39 90 39q51 0 89 -39q39 -38 39 -89q0 -53 -38 -91q-37 -37 -90 -37q-52 0 -90 38t-38 90zM503 683 q0 -104 79 -180t186 -76q106 0 185 76q80 77 80 180t-81 180q-79 76 -184 76q-107 0 -186 -76t-79 -180zM853 1579q0 51 38 89q39 39 90 39q52 0 90 -39q38 -38 38 -89q0 -53 -38 -91q-37 -37 -90 -37q-49 0 -90 38q-38 38 -38 90z" />
<glyph unicode="&#xf7;" horiz-adv-x="768" d="M43 555v256h682v-256h-682zM256 393q0 51 38 89q39 39 90 39t89 -39q39 -38 39 -89q0 -53 -39 -90q-38 -38 -89 -38q-49 0 -90 38q-38 38 -38 90zM256 973q0 51 38 89q39 39 90 39t89 -39q39 -38 39 -89t-39 -90q-38 -38 -89 -38q-49 0 -90 38q-38 41 -38 90z" />
<glyph unicode="&#xf8;" d="M-44 49l228 231q-141 178 -141 403q0 285 222 488q215 194 503 194q208 0 391 -111l242 243l181 -181l-230 -231q141 -179 141 -402q0 -287 -222 -488q-213 -195 -503 -195q-208 0 -391 111l-242 -241zM503 683q0 -35 12 -72l320 319q-33 9 -67 9q-106 0 -185 -76 q-80 -77 -80 -180zM701 435q37 -8 67 -8q106 0 185 76q80 77 80 180q0 36 -12 71z" />
<glyph unicode="&#xf9;" d="M43 683v682h460v-682q0 -104 79 -180t186 -76q105 0 184 76q81 76 81 180v682h460v-682q0 -287 -222 -488q-213 -195 -503 -195t-503 195q-222 201 -222 488zM213 1536l171 171l597 -222v-34z" />
<glyph unicode="&#xfa;" d="M43 683v682h460v-682q0 -104 79 -180t186 -76q105 0 184 76q81 76 81 180v682h460v-682q0 -287 -222 -488q-213 -195 -503 -195t-503 195q-222 201 -222 488zM555 1451v34l597 222l171 -171z" />
<glyph unicode="&#xfb;" d="M43 683v682h460v-682q0 -104 79 -180t186 -76q105 0 184 76q81 76 81 180v682h460v-682q0 -287 -222 -488q-213 -195 -503 -195t-503 195q-222 201 -222 488zM271 1451l342 256h310l342 -256h-277l-220 165l-220 -165h-277z" />
<glyph unicode="&#xfc;" d="M43 683v682h460v-682q0 -104 79 -180t186 -76q105 0 184 76q81 76 81 180v682h460v-682q0 -287 -222 -488q-213 -195 -503 -195t-503 195q-222 201 -222 488zM427 1579q0 51 38 89q37 39 90 39q52 0 90 -38t38 -90q0 -53 -38 -91q-37 -37 -90 -37q-52 0 -90 38t-38 90z M853 1579q0 51 38 89q39 39 90 39q52 0 90 -38t38 -90q0 -53 -38 -91q-37 -37 -90 -37q-49 0 -90 38q-38 38 -38 90z" />
<glyph unicode="&#xfd;" horiz-adv-x="1690" d="M43 1365h580l222 -401l222 401h580l-546 -938v-427h-512v427zM631 1451v34l598 222l170 -171z" />
<glyph unicode="&#xff;" horiz-adv-x="1690" d="M43 1365h580l222 -401l222 401h580l-546 -938v-427h-512v427zM503 1579q0 51 38 89q39 39 90 39q52 0 90 -38t38 -90t-38 -90t-90 -38q-49 0 -90 38q-38 38 -38 90zM930 1579q0 51 38 89q39 39 90 39q52 0 90 -38t38 -90q0 -53 -39 -90q-38 -38 -89 -38q-49 0 -90 38 q-38 38 -38 90z" />
<glyph unicode="&#x152;" horiz-adv-x="2449" d="M43 683q0 285 222 488q215 194 503 194q139 0 273 -51v51h1365v-426h-853v-77h512v-359h-512v-76h853v-427h-1365v51q-134 -51 -273 -51q-290 0 -503 195q-222 201 -222 488zM503 683q0 -104 79 -180t186 -76q106 0 185 76q80 77 80 180t-81 180q-79 76 -184 76 q-106 0 -185 -76q-80 -77 -80 -180z" />
<glyph unicode="&#x153;" horiz-adv-x="2449" d="M43 683q0 285 222 488q215 194 503 194q139 0 273 -51v51h1365v-426h-853v-77h512v-359h-512v-76h853v-427h-1365v51q-134 -51 -273 -51q-290 0 -503 195q-222 201 -222 488zM503 683q0 -104 79 -180t186 -76q106 0 185 76q80 77 80 180t-81 180q-79 76 -184 76 q-106 0 -185 -76q-80 -77 -80 -180z" />
<glyph unicode="&#x178;" horiz-adv-x="1690" d="M43 1365h580l222 -401l222 401h580l-546 -938v-427h-512v427zM503 1579q0 51 38 89q39 39 90 39q52 0 90 -38t38 -90q0 -53 -38 -91q-37 -37 -90 -37q-49 0 -90 38q-38 38 -38 90zM930 1579q0 51 38 89q39 39 90 39q52 0 90 -38t38 -90q0 -53 -38 -91q-37 -37 -90 -37 q-49 0 -90 38q-38 38 -38 90z" />
<glyph unicode="&#x2dc;" horiz-adv-x="768" d="M43 1451v174q76 66 172 66q58 0 170 -41t170 -41q79 0 170 82v-170q-94 -70 -175 -70q-56 0 -168 41t-167 41q-81 0 -172 -82z" />
<glyph unicode="&#x2000;" horiz-adv-x="853" />
<glyph unicode="&#x2001;" horiz-adv-x="1707" />
<glyph unicode="&#x2002;" horiz-adv-x="853" />
<glyph unicode="&#x2003;" horiz-adv-x="1707" />
<glyph unicode="&#x2004;" horiz-adv-x="569" />
<glyph unicode="&#x2005;" horiz-adv-x="426" />
<glyph unicode="&#x2006;" horiz-adv-x="284" />
<glyph unicode="&#x2007;" horiz-adv-x="284" />
<glyph unicode="&#x2008;" horiz-adv-x="213" />
<glyph unicode="&#x2009;" horiz-adv-x="341" />
<glyph unicode="&#x200a;" horiz-adv-x="94" />
<glyph unicode="&#x2010;" horiz-adv-x="768" d="M43 555v256h682v-256h-682z" />
<glyph unicode="&#x2011;" horiz-adv-x="768" d="M43 555v256h682v-256h-682z" />
<glyph unicode="&#x2012;" horiz-adv-x="768" d="M43 555v256h682v-256h-682z" />
<glyph unicode="&#x2013;" horiz-adv-x="1110" d="M43 555v256h1024v-256h-1024z" />
<glyph unicode="&#x2014;" horiz-adv-x="2134" d="M43 555v256h2048v-256h-2048z" />
<glyph unicode="&#x2018;" horiz-adv-x="427" d="M43 1024q0 60 25.5 129t74.5 132q65 77 122 80l-52 -170q70 0 120 -51q51 -50 51 -120q0 -68 -51 -120q-51 -51 -120 -51q-68 0 -119 51q-51 52 -51 120z" />
<glyph unicode="&#x2019;" horiz-adv-x="427" d="M43 1195q0 68 51 119t119 51q69 0 120 -51t51 -119q0 -60 -25 -129t-76 -132q-63 -77 -121 -81l51 171q-70 0 -120 50q-50 53 -50 121z" />
<glyph unicode="&#x201a;" horiz-adv-x="427" d="M43 171q0 68 51 119t119 51q69 0 120 -51t51 -119q0 -60 -25 -128.5t-76 -131.5q-63 -77 -121 -80l51 169q-70 0 -120 50q-50 53 -50 121z" />
<glyph unicode="&#x201c;" horiz-adv-x="853" d="M43 1024q0 60 25.5 129t74.5 132q65 77 122 80l-52 -170q70 0 120 -51q51 -50 51 -120q0 -68 -51 -120q-51 -51 -120 -51q-68 0 -119 51q-51 52 -51 120zM469 1024q0 60 26 129t75 132q63 77 121 80l-51 -170q70 0 120 -51q51 -50 51 -120q0 -68 -52 -120 q-51 -51 -119 -51t-120 51q-51 52 -51 120z" />
<glyph unicode="&#x201d;" horiz-adv-x="853" d="M43 1195q0 68 51 119t119 51q69 0 120 -51t51 -119q0 -60 -25 -129t-76 -132q-63 -77 -121 -81l51 171q-70 0 -120 50q-50 53 -50 121zM469 1195q0 68 51 119q52 51 120 51t119 -51q52 -51 52 -119q0 -60 -26 -129t-75 -132q-63 -77 -121 -81l51 171q-68 0 -121 50 q-50 53 -50 121z" />
<glyph unicode="&#x201e;" horiz-adv-x="853" d="M43 171q0 68 51 119t119 51q69 0 120 -51t51 -119q0 -60 -25 -128.5t-76 -131.5q-63 -77 -121 -80l51 169q-70 0 -120 50q-50 53 -50 121zM469 171q0 68 51 119q52 51 120 51t119 -51q52 -51 52 -119q0 -60 -26 -128.5t-75 -131.5q-63 -77 -121 -80l51 169q-68 0 -121 50 q-50 53 -50 121z" />
<glyph unicode="&#x2022;" horiz-adv-x="597" d="M43 683q0 104 76 180t180 76t180 -76t76 -180t-76 -180t-180 -76t-180 76t-76 180z" />
<glyph unicode="&#x2026;" horiz-adv-x="1280" d="M43 171q0 70 50 120t120 50t120 -50q51 -50 51 -120t-51 -121q-50 -50 -120 -50t-120 50q-50 53 -50 121zM469 171q0 70 50 120q53 50 121 50q70 0 120 -50q51 -50 51 -120t-51 -121q-50 -50 -120 -50q-68 0 -121 50q-50 53 -50 121zM896 171q0 70 50 120q53 50 121 50 q70 0 120 -50t50 -120q0 -68 -50 -121q-50 -50 -120 -50q-68 0 -121 50q-50 53 -50 121z" />
<glyph unicode="&#x202f;" horiz-adv-x="341" />
<glyph unicode="&#x205f;" horiz-adv-x="426" />
<glyph unicode="&#x2122;" horiz-adv-x="1237" d="M43 1034v161h735l113 -161l113 161h191v-512h-191v160l-113 -160l-113 160v-160h-191v351h-176v-351h-193v351h-175z" />
<glyph unicode="&#xe000;" horiz-adv-x="1365" d="M0 0v1365h1365v-1365h-1365z" />
</font>
</defs>
</svg>
